<svg xmlns="http://www.w3.org/2000/svg" xmlns:xlink="http://www.w3.org/1999/xlink" width="50" height="50" viewBox="0 0 50 50"><defs><path id="2gyfa" d="M75.935 42.903c.168.102.305.25.41.443l5.762 10.607c.07.113.106.238.106.374s-.03.259-.093.367a1.128 1.128 0 0 1-.556.486.957.957 0 0 1-.362.07.607.607 0 0 1-.565-.36l-5.298-9.907-5.35 9.907a.645.645 0 0 1-.285.273.841.841 0 0 1-.346.085 1.041 1.041 0 0 1-.356-.069 1.14 1.14 0 0 1-.576-.485.69.69 0 0 1-.093-.35c0-.113.035-.245.106-.391l5.827-10.607a1.17 1.17 0 0 1 .404-.443c.164-.103.373-.153.63-.153.255 0 .467.05.635.153zm10.203 12.346c-.256 0-.466-.051-.63-.153a1.175 1.175 0 0 1-.403-.443l-5.828-10.607a.93.93 0 0 1-.106-.392c0-.125.031-.242.093-.35a1.144 1.144 0 0 1 .75-.537.847.847 0 0 1 .528.068.64.64 0 0 1 .285.274l5.35 9.906 5.298-9.906a.606.606 0 0 1 .566-.36.95.95 0 0 1 .362.07 1.124 1.124 0 0 1 .556.486c.061.107.092.23.092.366a.695.695 0 0 1-.106.375l-5.76 10.607c-.107.193-.243.34-.411.443-.168.102-.38.153-.636.153zm11.822-12.5c.992 0 1.798.213 2.416.64.33.236.496.506.496.809 0 .18-.072.337-.215.472a.685.685 0 0 1-.48.201c-.1 0-.438-.131-1.017-.395-.58-.264-1.013-.396-1.3-.396-.562 0-1.029.171-1.398.514-.37.343-.554.797-.554 1.37 0 .74.744 1.356 2.234 1.85 1.191.405 2.013.792 2.465 1.16.706.573 1.06 1.387 1.06 2.44 0 1.176-.381 2.11-1.142 2.802-.762.688-1.727 1.033-2.896 1.033a6.69 6.69 0 0 1-2.036-.32c-.904-.292-1.357-.707-1.357-1.246 0-.46.215-.692.646-.692.12 0 .264.046.43.132.1.068.254.161.463.281.64.343 1.324.514 2.052.514.618 0 1.15-.24 1.597-.724.447-.48.67-1.036.67-1.665 0-.806-.452-1.435-1.357-1.884-.772-.292-1.55-.581-2.333-.873-1.368-.618-2.052-1.61-2.052-2.98 0-.94.38-1.698 1.142-2.268.695-.517 1.517-.774 2.466-.774zM110 24v50H60v-50zm-1.554 1.553H61.553v46.894h46.893z"/><linearGradient id="2gyfb" x1="99" x2="71" y1="74" y2="24" gradientUnits="userSpaceOnUse"><stop offset="0" stop-color="#00cec0"/><stop offset=".99" stop-color="#672aa0"/><stop offset="1" stop-color="#672aa0"/></linearGradient></defs><g><g transform="translate(-60 -24)"><use fill="#494949" xlink:href="#2gyfa"/><use fill="url(#2gyfb)" xlink:href="#2gyfa"/></g></g></svg>