<svg xmlns="http://www.w3.org/2000/svg" xmlns:xlink="http://www.w3.org/1999/xlink" width="50" height="50" viewBox="0 0 50 50"><defs><path id="o5ima" d="M377 647.52a6.479 6.479 0 1 1 0 12.959 6.479 6.479 0 0 1 0-12.958z"/><path id="o5imb" d="M377 644.537a9.463 9.463 0 1 1 0 18.926 9.463 9.463 0 0 1 0-18.926z"/><path id="o5imc" d="M377 641.404c6.956 0 12.596 5.64 12.596 12.596s-5.64 12.596-12.596 12.596c-6.957 0-12.596-5.64-12.596-12.596 0-6.957 5.64-12.596 12.596-12.596z"/><path id="o5imd" d="M377 638.25c8.699 0 15.75 7.051 15.75 15.75 0 8.698-7.051 15.75-15.75 15.75s-15.75-7.052-15.75-15.75c0-8.699 7.051-15.75 15.75-15.75z"/><path id="o5ime" d="M377 635.266c10.346 0 18.734 8.387 18.734 18.734 0 10.346-8.388 18.734-18.734 18.734-10.347 0-18.734-8.388-18.734-18.734 0-10.347 8.387-18.734 18.734-18.734z"/><path id="o5imf" d="M377 632.26c12.006 0 21.74 9.733 21.74 21.74 0 12.006-9.734 21.739-21.74 21.739-12.006 0-21.74-9.733-21.74-21.739 0-12.007 9.734-21.74 21.74-21.74z"/><path id="o5img" d="M377 629c13.807 0 25 11.193 25 25s-11.193 25-25 25-25-11.193-25-25 11.193-25 25-25z"/><clipPath id="o5imh"><use fill="#fff" xlink:href="#o5ima"/></clipPath><clipPath id="o5imi"><use fill="#fff" xlink:href="#o5imb"/></clipPath><clipPath id="o5imj"><use fill="#fff" xlink:href="#o5imc"/></clipPath><clipPath id="o5imk"><use fill="#fff" xlink:href="#o5imd"/></clipPath><clipPath id="o5iml"><use fill="#fff" xlink:href="#o5ime"/></clipPath><clipPath id="o5imm"><use fill="#fff" xlink:href="#o5imf"/></clipPath><clipPath id="o5imn"><use fill="#fff" xlink:href="#o5img"/></clipPath></defs><g><g transform="translate(-352 -629)"><use fill="#fff" fill-opacity="0" stroke="#00c6cd" stroke-miterlimit="50" stroke-width="4" clip-path="url(&quot;#o5imh&quot;)" xlink:href="#o5ima"/></g><g transform="translate(-352 -629)"><use fill="#fff" fill-opacity="0" stroke="#00c6cd" stroke-miterlimit="50" stroke-width="4" clip-path="url(&quot;#o5imi&quot;)" xlink:href="#o5imb"/></g><g transform="translate(-352 -629)"><use fill="#fff" fill-opacity="0" stroke="#00c6cd" stroke-miterlimit="50" stroke-width="4" clip-path="url(&quot;#o5imj&quot;)" xlink:href="#o5imc"/></g><g transform="translate(-352 -629)"><use fill="#fff" fill-opacity="0" stroke="#00c6cd" stroke-miterlimit="50" stroke-width="4" clip-path="url(&quot;#o5imk&quot;)" xlink:href="#o5imd"/></g><g transform="translate(-352 -629)"><use fill="#fff" fill-opacity="0" stroke="#00c6cd" stroke-miterlimit="50" stroke-width="4" clip-path="url(&quot;#o5iml&quot;)" xlink:href="#o5ime"/></g><g transform="translate(-352 -629)"><use fill="#fff" fill-opacity="0" stroke="#00c6cd" stroke-miterlimit="50" stroke-width="4" clip-path="url(&quot;#o5imm&quot;)" xlink:href="#o5imf"/></g><g transform="translate(-352 -629)"><use fill="#fff" fill-opacity="0" stroke="#00c6cd" stroke-miterlimit="50" stroke-width="4" clip-path="url(&quot;#o5imn&quot;)" xlink:href="#o5img"/></g></g></svg>