<svg xmlns="http://www.w3.org/2000/svg" xmlns:xlink="http://www.w3.org/1999/xlink" width="50" height="50" viewBox="0 0 50 50"><defs><path id="dqkja" d="M377 647.52a6.479 6.479 0 1 1 0 12.959 6.479 6.479 0 0 1 0-12.958z"/><path id="dqkjb" d="M377 644.537a9.463 9.463 0 1 1 0 18.926 9.463 9.463 0 0 1 0-18.926z"/><path id="dqkjc" d="M377 641.404c6.956 0 12.596 5.64 12.596 12.596s-5.64 12.596-12.596 12.596c-6.957 0-12.596-5.64-12.596-12.596 0-6.957 5.64-12.596 12.596-12.596z"/><path id="dqkjd" d="M377 638.25c8.699 0 15.75 7.051 15.75 15.75 0 8.698-7.051 15.75-15.75 15.75s-15.75-7.052-15.75-15.75c0-8.699 7.051-15.75 15.75-15.75z"/><path id="dqkje" d="M377 635.266c10.346 0 18.734 8.387 18.734 18.734 0 10.346-8.388 18.734-18.734 18.734-10.347 0-18.734-8.388-18.734-18.734 0-10.347 8.387-18.734 18.734-18.734z"/><path id="dqkjf" d="M377 632.26c12.006 0 21.74 9.733 21.74 21.74 0 12.006-9.734 21.739-21.74 21.739-12.006 0-21.74-9.733-21.74-21.739 0-12.007 9.734-21.74 21.74-21.74z"/><path id="dqkjg" d="M377 629c13.807 0 25 11.193 25 25s-11.193 25-25 25-25-11.193-25-25 11.193-25 25-25z"/><clipPath id="dqkjh"><use fill="#fff" xlink:href="#dqkja"/></clipPath><clipPath id="dqkji"><use fill="#fff" xlink:href="#dqkjb"/></clipPath><clipPath id="dqkjj"><use fill="#fff" xlink:href="#dqkjc"/></clipPath><clipPath id="dqkjk"><use fill="#fff" xlink:href="#dqkjd"/></clipPath><clipPath id="dqkjl"><use fill="#fff" xlink:href="#dqkje"/></clipPath><clipPath id="dqkjm"><use fill="#fff" xlink:href="#dqkjf"/></clipPath><clipPath id="dqkjn"><use fill="#fff" xlink:href="#dqkjg"/></clipPath></defs><g><g transform="translate(-352 -629)"><g><use fill="#fff" fill-opacity="0" stroke="#00c6cd" stroke-miterlimit="50" stroke-width="4" clip-path="url(&quot;#dqkjh&quot;)" xlink:href="#dqkja"/></g><g><use fill="#fff" fill-opacity="0" stroke="#00c6cd" stroke-miterlimit="50" stroke-width="4" clip-path="url(&quot;#dqkji&quot;)" xlink:href="#dqkjb"/></g><g><use fill="#fff" fill-opacity="0" stroke="#00c6cd" stroke-miterlimit="50" stroke-width="4" clip-path="url(&quot;#dqkjj&quot;)" xlink:href="#dqkjc"/></g><g><use fill="#fff" fill-opacity="0" stroke="#00c6cd" stroke-miterlimit="50" stroke-width="4" clip-path="url(&quot;#dqkjk&quot;)" xlink:href="#dqkjd"/></g><g><use fill="#fff" fill-opacity="0" stroke="#00c6cd" stroke-miterlimit="50" stroke-width="4" clip-path="url(&quot;#dqkjl&quot;)" xlink:href="#dqkje"/></g><g><use fill="#fff" fill-opacity="0" stroke="#00c6cd" stroke-miterlimit="50" stroke-width="4" clip-path="url(&quot;#dqkjm&quot;)" xlink:href="#dqkjf"/></g><g><use fill="#fff" fill-opacity="0" stroke="#00c6cd" stroke-miterlimit="50" stroke-width="4" clip-path="url(&quot;#dqkjn&quot;)" xlink:href="#dqkjg"/></g></g></g></svg>