<svg xmlns="http://www.w3.org/2000/svg" xmlns:xlink="http://www.w3.org/1999/xlink">
  <symbol id="ready-site" viewBox="0 0 41 30">
    <path transform="translate(-420 -1144)" d="M426.327 1168.923c-1.677 0-3.043-1.343-3.043-2.995v-18.933c0-1.653 1.366-2.996 3.043-2.996h28.346c1.678 0 3.044 1.343 3.044 2.996v18.933c0 1.652-1.366 2.995-3.044 2.995zm-.223-2.995c0 .12.1.219.223.219h28.346a.221.221 0 0 0 .223-.22v-18.932c0-.121-.1-.22-.223-.22h-28.346a.221.221 0 0 0-.223.22zm33.79 4.131c.61 0 1.106.488 1.106 1.09 0 1.574-1.298 2.85-2.898 2.85h-35.204c-1.6 0-2.898-1.276-2.898-2.85 0-.602.495-1.09 1.106-1.09zm-23.972-17.605a.386.386 0 0 1 .095-.405.402.402 0 0 1 .412-.094l7.118 2.44a.39.39 0 0 1 .075.705l-1.55.924 2.912 2.864c.155.154.155.4 0 .553l-1.456 1.434a.402.402 0 0 1-.562 0l-2.912-2.866-.938 1.525a.399.399 0 0 1-.716-.075z"/>
  </symbol>
  <symbol id="adaptive" viewBox="0 0 40 34">
    <path transform="translate(-807 -1143)" d="M813.222 1166.39h7.926v4.158h-9.436c-2.598 0-4.712-2.165-4.712-4.828v-17.891c0-2.663 2.114-4.829 4.712-4.829h26.09c2.597 0 4.71 2.166 4.71 4.829v3.155c-.961-1.043-2.313-1.703-3.82-1.703h-.238v-1.452c0-.37-.294-.67-.653-.67h-24.58zm-2.908-7.9c.925 0 1.674-.769 1.674-1.715 0-.949-.75-1.717-1.674-1.717-.925 0-1.676.768-1.676 1.717 0 .946.75 1.715 1.676 1.715zm25.044 16.971c0 .238.024.471.07.696.059.3.168.577.298.843h-9.309c-1.786 0-3.24-1.489-3.24-3.32v-18.802c0-1.831 1.454-3.32 3.24-3.32h12.275c1.786 0 3.24 1.489 3.24 3.32v4.375h-2.707v-4.375a.54.54 0 0 0-.533-.547h-12.275a.54.54 0 0 0-.534.547v17.46h9.475zm-2.804.304c.63 0 1.142-.523 1.142-1.17 0-.646-.513-1.17-1.142-1.17-.63 0-1.141.524-1.141 1.17 0 .647.511 1.17 1.141 1.17zm12.752-14.977c.934 0 1.694.779 1.694 1.736v12.739c0 .958-.76 1.737-1.694 1.737h-6.563c-.934 0-1.694-.78-1.694-1.737v-12.739c0-.957.76-1.736 1.694-1.736zm-3.28 15.368a.724.724 0 0 0 .713-.733.723.723 0 0 0-.714-.732.724.724 0 0 0-.716.732c0 .405.32.733.716.733zm2.944-13.288h-5.891v11.012h5.891z"/>
  </symbol>
  <symbol id="cms" viewBox="0 0 32 32">
    <path transform="translate(-1199 -1142)" d="M1228.49 1141.995a2.511 2.511 0 0 1 2.507 2.51v26.992a2.512 2.512 0 0 1-2.507 2.51h-26.983a2.512 2.512 0 0 1-2.508-2.51v-26.992a2.513 2.513 0 0 1 2.508-2.51zm-1.701 2.858a1.075 1.075 0 1 0 0 2.15 1.075 1.075 0 0 0 0-2.15zm-3.85 0a1.075 1.075 0 1 0 0 2.15 1.075 1.075 0 0 0 0-2.15zm-6.01 4.824h-15.065v21.46h15.066zm11.201 0h-10.097v21.46h10.097zm-1.133 6.251h-7.655v-4.764h7.655zm0 6.63h-7.655v-4.764h7.655zm0 6.734h-7.655v-4.765h7.655z"/>
  </symbol>
  <symbol id="search" viewBox="0 0 50 41">
    <path transform="translate(-418 -1414)" d="M445.38 1437.332a3.227 3.227 0 0 1-.788-1.278l6.28-.028c-.16.486-.42.936-.796 1.308-1.253 1.235-3.44 1.237-4.696-.002zm-21.09 2.126c-1.855 0-3.364-1.487-3.364-3.317v-18.816c0-1.83 1.509-3.317 3.365-3.317h28.114c1.856 0 3.364 1.488 3.364 3.317v8.877a11.98 11.98 0 0 0-3.486-2.178v-6.699l-27.992.122.122 18.694 11.33-.05a11.68 11.68 0 0 0 .82 3.367zm12.64.79a11.845 11.845 0 0 0 3.13 3.917h-19.171c-1.589 0-2.876-1.27-2.876-2.836a1.09 1.09 0 0 1 1.098-1.082zm18.781 7.756l-.475-.468a1.612 1.612 0 0 1 .002-2.299l.019-.019-2.432-2.398a9.524 9.524 0 0 1-5.097 1.489 9.425 9.425 0 0 1-6.662-2.722 9.161 9.161 0 0 1-2.76-6.57c0-2.483.979-4.816 2.76-6.571a9.425 9.425 0 0 1 6.662-2.722c2.517 0 4.883.967 6.662 2.722a9.16 9.16 0 0 1 1.251 11.597l2.433 2.399.021-.02a1.662 1.662 0 0 1 2.329 0l.475.468 2.585 2.55-5.187 5.114zm-2.732-10.31a5.725 5.725 0 0 0 .686-2.678 5.768 5.768 0 0 0-1.74-4.138 5.935 5.935 0 0 0-4.197-1.716 5.937 5.937 0 0 0-4.197 1.715 5.772 5.772 0 0 0-1.738 4.14c0 1.563.616 3.033 1.738 4.139 1.824 1.795 4.731 2.107 6.965.985.516-.258 1.008-.57 1.429-.984.439-.433.776-.934 1.054-1.463zm12.8 10.007l-5.186 5.117-1.063-1.048 5.186-5.116zm1.224 1.224a3.575 3.575 0 0 1-.077 5.023 3.69 3.69 0 0 1-2.593 1.06c-.931 0-1.82-.357-2.499-.983z"/>
  </symbol>
  <symbol id="hosting" viewBox="0 0 25 39">
    <path transform="translate(-808 -1411)" d="M832.236 1410.996a.77.77 0 0 1 .763.775v7.05a.77.77 0 0 1-.763.776H808.77a.77.77 0 0 1-.762-.776v-7.05a.77.77 0 0 1 .762-.775zm-11.733 2.065h-10.015v4.072h10.015zm11.733 8.334a.77.77 0 0 1 .763.776v7.05a.77.77 0 0 1-.763.775H808.77a.77.77 0 0 1-.762-.775v-7.05a.77.77 0 0 1 .762-.776zm-11.733 1.96h-10.015v4.072h10.015zm11.733 8.338a.77.77 0 0 1 .763.776v7.05a.77.77 0 0 1-.763.776H808.77a.77.77 0 0 1-.762-.776v-7.05a.77.77 0 0 1 .762-.776zm-11.733 2.265h-10.015v4.072h10.015zm11.279 13.618v1.11h-5.975v.052c0 .702-.56 1.27-1.25 1.27h-8.108c-.69 0-1.249-.568-1.249-1.27v-.053h-5.977v-1.11h5.986a1.254 1.254 0 0 1 1.24-1.164h2.487v-2.539c0-.7.56-1.27 1.25-1.27h.625c.688 0 1.249.57 1.249 1.27v2.54h2.498c.652 0 1.183.512 1.237 1.164z"/>
  </symbol>
  <symbol id="analytics" viewBox="0 0 39 37">
    <path transform="translate(-1200 -1413)" d="M1233.945 1415.764h3.85v30.564h-3.85zm-8.199 1.271c-.668.211-1.452-.083-1.722-.642a.995.995 0 0 1-.016-.843c.137-.318.429-.565.801-.68l6.01-1.873.732 5.358c.04.271-.036.55-.218.78-.22.284-.575.469-.975.505-.046.006-.1.008-.153.008-.68 0-1.257-.432-1.342-1.006l-.092-.81c-6.947 9.62-22.944 19.93-23.637 20.373a1.51 1.51 0 0 1-.815.23 1.46 1.46 0 0 1-1.038-.408 1.039 1.039 0 0 1-.312-.853c.037-.321.23-.62.533-.813.163-.104 16.007-10.348 22.777-19.49zm5.087 5.516v23.775h-3.85v-23.775zm-6.732 7.065v16.712h-3.85v-16.712zm-6.962 7.34v9.37h-3.85v-9.37zm-7.36 3.67v5.7h-3.85v-5.7zm29.214 9.369h-38.997v-2.857h38.997z"/>
  </symbol>

</svg>
