<svg xmlns="http://www.w3.org/2000/svg" xmlns:xlink="http://www.w3.org/1999/xlink" width="32" height="32" viewBox="0 0 32 32"><defs><path id="65s2a" d="M1228.49 1141.995a2.511 2.511 0 0 1 2.507 2.51v26.992a2.512 2.512 0 0 1-2.507 2.51h-26.983a2.512 2.512 0 0 1-2.508-2.51v-26.992a2.513 2.513 0 0 1 2.508-2.51zm-1.701 2.858a1.075 1.075 0 1 0 0 2.15 1.075 1.075 0 0 0 0-2.15zm-3.85 0a1.075 1.075 0 1 0 0 2.15 1.075 1.075 0 0 0 0-2.15zm-6.01 4.824h-15.065v21.46h15.066zm11.201 0h-10.097v21.46h10.097zm-1.133 6.251h-7.655v-4.764h7.655zm0 6.63h-7.655v-4.764h7.655zm0 6.734h-7.655v-4.765h7.655z"/></defs><g><g transform="translate(-1199 -1142)"><use fill="#6d2cc1" xlink:href="#65s2a"/></g></g></svg>