<svg xmlns="http://www.w3.org/2000/svg" xmlns:xlink="http://www.w3.org/1999/xlink" width="39" height="37" viewBox="0 0 39 37"><defs><path id="v02ka" d="M1233.945 1415.764h3.85v30.564h-3.85zm-8.199 1.271c-.668.211-1.452-.083-1.722-.642a.995.995 0 0 1-.016-.843c.137-.318.429-.565.801-.68l6.01-1.873.732 5.358c.04.271-.036.55-.218.78-.22.284-.575.469-.975.505-.046.006-.1.008-.153.008-.68 0-1.257-.432-1.342-1.006l-.092-.81c-6.947 9.62-22.944 19.93-23.637 20.373a1.51 1.51 0 0 1-.815.23 1.46 1.46 0 0 1-1.038-.408 1.039 1.039 0 0 1-.312-.853c.037-.321.23-.62.533-.813.163-.104 16.007-10.348 22.777-19.49zm5.087 5.516v23.775h-3.85v-23.775zm-6.732 7.065v16.712h-3.85v-16.712zm-6.962 7.34v9.37h-3.85v-9.37zm-7.36 3.67v5.7h-3.85v-5.7zm29.214 9.369h-38.997v-2.857h38.997z"/></defs><g><g transform="translate(-1200 -1413)"><use fill="#6d2cc1" xlink:href="#v02ka"/></g></g></svg>