<svg xmlns="http://www.w3.org/2000/svg" xmlns:xlink="http://www.w3.org/1999/xlink" width="41" height="30" viewBox="0 0 41 30"><defs><path id="8j84a" d="M426.327 1168.923c-1.677 0-3.043-1.343-3.043-2.995v-18.933c0-1.653 1.366-2.996 3.043-2.996h28.346c1.678 0 3.044 1.343 3.044 2.996v18.933c0 1.652-1.366 2.995-3.044 2.995zm-.223-2.995c0 .12.1.219.223.219h28.346a.221.221 0 0 0 .223-.22v-18.932c0-.121-.1-.22-.223-.22h-28.346a.221.221 0 0 0-.223.22zm33.79 4.131c.61 0 1.106.488 1.106 1.09 0 1.574-1.298 2.85-2.898 2.85h-35.204c-1.6 0-2.898-1.276-2.898-2.85 0-.602.495-1.09 1.106-1.09zm-23.972-17.605a.386.386 0 0 1 .095-.405.402.402 0 0 1 .412-.094l7.118 2.44a.39.39 0 0 1 .075.705l-1.55.924 2.912 2.864c.155.154.155.4 0 .553l-1.456 1.434a.402.402 0 0 1-.562 0l-2.912-2.866-.938 1.525a.399.399 0 0 1-.716-.075z"/></defs><g><g transform="translate(-420 -1144)"><use fill="#6d2cc1" xlink:href="#8j84a"/></g></g></svg>