<svg xmlns="http://www.w3.org/2000/svg" xmlns:xlink="http://www.w3.org/1999/xlink" width="40" height="34" viewBox="0 0 40 34"><defs><path id="zqsra" d="M813.222 1166.39h7.926v4.158h-9.436c-2.598 0-4.712-2.165-4.712-4.828v-17.891c0-2.663 2.114-4.829 4.712-4.829h26.09c2.597 0 4.71 2.166 4.71 4.829v3.155c-.961-1.043-2.313-1.703-3.82-1.703h-.238v-1.452c0-.37-.294-.67-.653-.67h-24.58zm-2.908-7.9c.925 0 1.674-.769 1.674-1.715 0-.949-.75-1.717-1.674-1.717-.925 0-1.676.768-1.676 1.717 0 .946.75 1.715 1.676 1.715zm25.044 16.971c0 .238.024.471.07.696.059.3.168.577.298.843h-9.309c-1.786 0-3.24-1.489-3.24-3.32v-18.802c0-1.831 1.454-3.32 3.24-3.32h12.275c1.786 0 3.24 1.489 3.24 3.32v4.375h-2.707v-4.375a.54.54 0 0 0-.533-.547h-12.275a.54.54 0 0 0-.534.547v17.46h9.475zm-2.804.304c.63 0 1.142-.523 1.142-1.17 0-.646-.513-1.17-1.142-1.17-.63 0-1.141.524-1.141 1.17 0 .647.511 1.17 1.141 1.17zm12.752-14.977c.934 0 1.694.779 1.694 1.736v12.739c0 .958-.76 1.737-1.694 1.737h-6.563c-.934 0-1.694-.78-1.694-1.737v-12.739c0-.957.76-1.736 1.694-1.736zm-3.28 15.368a.724.724 0 0 0 .713-.733.723.723 0 0 0-.714-.732.724.724 0 0 0-.716.732c0 .405.32.733.716.733zm2.944-13.288h-5.891v11.012h5.891z"/></defs><g><g transform="translate(-807 -1143)"><use fill="#6d2cc1" xlink:href="#zqsra"/></g></g></svg>