<svg xmlns="http://www.w3.org/2000/svg" xmlns:xlink="http://www.w3.org/1999/xlink" width="50" height="41" viewBox="0 0 50 41"><defs><path id="jy9wa" d="M445.38 1437.332a3.227 3.227 0 0 1-.788-1.278l6.28-.028c-.16.486-.42.936-.796 1.308-1.253 1.235-3.44 1.237-4.696-.002zm-21.09 2.126c-1.855 0-3.364-1.487-3.364-3.317v-18.816c0-1.83 1.509-3.317 3.365-3.317h28.114c1.856 0 3.364 1.488 3.364 3.317v8.877a11.98 11.98 0 0 0-3.486-2.178v-6.699l-27.992.122.122 18.694 11.33-.05a11.68 11.68 0 0 0 .82 3.367zm12.64.79a11.845 11.845 0 0 0 3.13 3.917h-19.171c-1.589 0-2.876-1.27-2.876-2.836a1.09 1.09 0 0 1 1.098-1.082zm18.781 7.756l-.475-.468a1.612 1.612 0 0 1 .002-2.299l.019-.019-2.432-2.398a9.524 9.524 0 0 1-5.097 1.489 9.425 9.425 0 0 1-6.662-2.722 9.161 9.161 0 0 1-2.76-6.57c0-2.483.979-4.816 2.76-6.571a9.425 9.425 0 0 1 6.662-2.722c2.517 0 4.883.967 6.662 2.722a9.16 9.16 0 0 1 1.251 11.597l2.433 2.399.021-.02a1.662 1.662 0 0 1 2.329 0l.475.468 2.585 2.55-5.187 5.114zm-2.732-10.31a5.725 5.725 0 0 0 .686-2.678 5.768 5.768 0 0 0-1.74-4.138 5.935 5.935 0 0 0-4.197-1.716 5.937 5.937 0 0 0-4.197 1.715 5.772 5.772 0 0 0-1.738 4.14c0 1.563.616 3.033 1.738 4.139 1.824 1.795 4.731 2.107 6.965.985.516-.258 1.008-.57 1.429-.984.439-.433.776-.934 1.054-1.463zm12.8 10.007l-5.186 5.117-1.063-1.048 5.186-5.116zm1.224 1.224a3.575 3.575 0 0 1-.077 5.023 3.69 3.69 0 0 1-2.593 1.06c-.931 0-1.82-.357-2.499-.983z"/></defs><g><g transform="translate(-418 -1414)"><use fill="#6d2cc1" xlink:href="#jy9wa"/></g></g></svg>