<svg xmlns="http://www.w3.org/2000/svg" xmlns:xlink="http://www.w3.org/1999/xlink" width="25" height="39" viewBox="0 0 25 39"><defs><path id="963xa" d="M832.236 1410.996a.77.77 0 0 1 .763.775v7.05a.77.77 0 0 1-.763.776H808.77a.77.77 0 0 1-.762-.776v-7.05a.77.77 0 0 1 .762-.775zm-11.733 2.065h-10.015v4.072h10.015zm11.733 8.334a.77.77 0 0 1 .763.776v7.05a.77.77 0 0 1-.763.775H808.77a.77.77 0 0 1-.762-.775v-7.05a.77.77 0 0 1 .762-.776zm-11.733 1.96h-10.015v4.072h10.015zm11.733 8.338a.77.77 0 0 1 .763.776v7.05a.77.77 0 0 1-.763.776H808.77a.77.77 0 0 1-.762-.776v-7.05a.77.77 0 0 1 .762-.776zm-11.733 2.265h-10.015v4.072h10.015zm11.279 13.618v1.11h-5.975v.052c0 .702-.56 1.27-1.25 1.27h-8.108c-.69 0-1.249-.568-1.249-1.27v-.053h-5.977v-1.11h5.986a1.254 1.254 0 0 1 1.24-1.164h2.487v-2.539c0-.7.56-1.27 1.25-1.27h.625c.688 0 1.249.57 1.249 1.27v2.54h2.498c.652 0 1.183.512 1.237 1.164z"/></defs><g><g transform="translate(-808 -1411)"><use fill="#6d2cc1" xlink:href="#963xa"/></g></g></svg>